<svg width="616" height="78" viewBox="0 0 616 78" fill="none" xmlns="http://www.w3.org/2000/svg">
<path d="M28.4 75.8H-4.87864e-05V1.40005H28.4V30.8L65 1.40005H100.3L57 35.2L101.7 75.8H64.7L28.4 42.5V75.8ZM131.185 1.40005V17.5H103.985V1.40005H131.185ZM131.185 22V75.8H103.985V22H131.185ZM182.641 77.3H176.641C170.041 77.3 164.241 76.7 159.241 75.5C154.308 74.2334 150.475 72.6667 147.741 70.8C145.008 68.9334 142.775 66.7 141.041 64.1C139.375 61.4334 138.275 59 137.741 56.8C137.275 54.5334 137.041 52.1 137.041 49.5V47.7C137.041 29.5667 150.208 20.5 176.541 20.5H182.741C189.541 20.5 195.475 21.1334 200.541 22.4C205.675 23.6 209.575 25.0667 212.241 26.8C214.908 28.4667 217.041 30.5 218.641 32.9C220.308 35.3 221.341 37.3667 221.741 39.1C222.141 40.8334 222.341 42.6334 222.341 44.5V44.8H194.541C194.408 44 194.141 43.2 193.741 42.4C193.408 41.6 192.775 40.6334 191.841 39.5C190.908 38.3 189.375 37.3334 187.241 36.6C185.175 35.8667 182.641 35.5 179.641 35.5H179.241C173.908 35.5 170.141 36.7 167.941 39.1C165.741 41.4334 164.641 44.4 164.641 48V48.5C164.641 52.3 165.775 55.5334 168.041 58.2C170.308 60.8 174.041 62.1 179.241 62.1H179.641C182.575 62.1 185.075 61.7334 187.141 61C189.275 60.2 190.808 59.2 191.741 58C192.741 56.7334 193.408 55.7 193.741 54.9C194.141 54.0334 194.408 53.2 194.541 52.4H222.341V52.6C222.341 53.8667 222.241 55.1 222.041 56.3C221.908 57.5 221.508 58.9667 220.841 60.7C220.241 62.3667 219.408 63.9334 218.341 65.4C217.275 66.8667 215.708 68.3667 213.641 69.9C211.641 71.3667 209.275 72.6334 206.541 73.7C203.875 74.7667 200.475 75.6334 196.341 76.3C192.275 76.9667 187.708 77.3 182.641 77.3ZM255.013 75.8H227.813V1.40005H255.013V43L273.413 22H302.713L280.813 45.8L305.913 75.8H275.013L255.013 51.6V75.8ZM361.077 4.72069e-05H365.577C372.177 4.72069e-05 378.177 0.466714 383.577 1.40005C389.044 2.26671 393.611 3.43338 397.277 4.90004C401.011 6.30005 404.244 8.06671 406.977 10.2C409.777 12.2667 411.977 14.3667 413.577 16.5C415.177 18.6334 416.444 20.9667 417.377 23.5C418.377 26.0334 419.011 28.3334 419.277 30.4C419.611 32.4667 419.777 34.6334 419.777 36.9V39.9C419.777 42.1667 419.611 44.3334 419.277 46.4C419.011 48.4667 418.377 50.8 417.377 53.4C416.444 55.9334 415.177 58.3 413.577 60.5C412.044 62.6334 409.877 64.7667 407.077 66.9C404.277 69.0334 401.044 70.8334 397.377 72.3C393.711 73.7667 389.144 74.9334 383.677 75.8C378.277 76.7334 372.244 77.2 365.577 77.2H361.077C354.411 77.2 348.344 76.7334 342.877 75.8C337.477 74.9334 332.911 73.7667 329.177 72.3C325.511 70.8334 322.277 69.0334 319.477 66.9C316.677 64.7667 314.477 62.6334 312.877 60.5C311.344 58.3 310.077 55.9334 309.077 53.4C308.144 50.8 307.511 48.4667 307.177 46.4C306.911 44.3334 306.777 42.1667 306.777 39.9V36.9C306.777 34.6334 306.911 32.4667 307.177 30.4C307.511 28.3334 308.144 26.0334 309.077 23.5C310.077 20.9667 311.344 18.6334 312.877 16.5C314.477 14.3667 316.677 12.2667 319.477 10.2C322.277 8.06671 325.511 6.30005 329.177 4.90004C332.911 3.43338 337.477 2.26671 342.877 1.40005C348.344 0.466714 354.411 4.72069e-05 361.077 4.72069e-05ZM390.377 39V37.6C390.377 35.4 389.977 33.3667 389.177 31.5C388.377 29.5667 387.011 27.7 385.077 25.9C383.211 24.1 380.411 22.6667 376.677 21.6C372.944 20.5334 368.477 20 363.277 20C357.944 20 353.411 20.5334 349.677 21.6C345.944 22.6667 343.144 24.1 341.277 25.9C339.411 27.7 338.077 29.5667 337.277 31.5C336.544 33.3667 336.177 35.4 336.177 37.6V38.8C336.177 41 336.577 43.1 337.377 45.1C338.177 47.0334 339.511 48.9667 341.377 50.9C343.244 52.7667 346.044 54.2667 349.777 55.4C353.577 56.5334 358.077 57.1 363.277 57.1C368.477 57.1 372.944 56.5667 376.677 55.5C380.477 54.3667 383.311 52.8667 385.177 51C387.044 49.1334 388.377 47.2334 389.177 45.3C389.977 43.3 390.377 41.2 390.377 39ZM426.855 1.40005H507.555V19.6H454.955V28.9H506.455V47.2H454.955V75.8H426.855V1.40005ZM515.82 1.40005H596.52V19.6H543.92V28.9H595.42V47.2H543.92V75.8H515.82V1.40005Z" fill="white"/>
<path d="M615.074 56.3V75.8H586.874V56.3H615.074Z" fill="#589347"/>
</svg>
