<svg width="154" height="20" viewBox="0 0 154 20" fill="none" xmlns="http://www.w3.org/2000/svg">
<path d="M7.09999 18.95H-1.21966e-05V0.349951H7.09999V7.69995L16.25 0.349951H25.075L14.25 8.79995L25.425 18.95H16.175L7.09999 10.625V18.95ZM32.7963 0.349951V4.37495H25.9963V0.349951H32.7963ZM32.7963 5.49995V18.95H25.9963V5.49995H32.7963ZM45.6603 19.325H44.1603C42.5103 19.325 41.0603 19.175 39.8103 18.875C38.577 18.5583 37.6187 18.1666 36.9353 17.7C36.252 17.2333 35.6937 16.675 35.2603 16.025C34.8437 15.3583 34.5687 14.75 34.4353 14.2C34.3187 13.6333 34.2603 13.025 34.2603 12.375V11.925C34.2603 7.39162 37.552 5.12495 44.1353 5.12495H45.6853C47.3853 5.12495 48.8687 5.28328 50.1353 5.59995C51.4187 5.89995 52.3937 6.26662 53.0603 6.69995C53.727 7.11662 54.2603 7.62495 54.6603 8.22495C55.077 8.82495 55.3353 9.34162 55.4353 9.77495C55.5353 10.2083 55.5853 10.6583 55.5853 11.125V11.2H48.6353C48.602 11 48.5353 10.8 48.4353 10.6C48.352 10.4 48.1937 10.1583 47.9603 9.87495C47.727 9.57495 47.3437 9.33328 46.8103 9.14995C46.2937 8.96662 45.6603 8.87495 44.9103 8.87495H44.8103C43.477 8.87495 42.5353 9.17495 41.9853 9.77495C41.4353 10.3583 41.1603 11.1 41.1603 12V12.125C41.1603 13.075 41.4437 13.8833 42.0103 14.55C42.577 15.2 43.5103 15.525 44.8103 15.525H44.9103C45.6437 15.525 46.2687 15.4333 46.7853 15.25C47.3187 15.05 47.702 14.8 47.9353 14.5C48.1853 14.1833 48.352 13.925 48.4353 13.725C48.5353 13.5083 48.602 13.3 48.6353 13.1H55.5853V13.15C55.5853 13.4666 55.5603 13.775 55.5103 14.075C55.477 14.375 55.377 14.7416 55.2103 15.175C55.0603 15.5916 54.852 15.9833 54.5853 16.35C54.3187 16.7166 53.927 17.0916 53.4103 17.475C52.9103 17.8416 52.3187 18.1583 51.6353 18.425C50.9687 18.6916 50.1187 18.9083 49.0853 19.075C48.0687 19.2416 46.927 19.325 45.6603 19.325ZM63.7533 18.95H56.9533V0.349951H63.7533V10.75L68.3533 5.49995H75.6783L70.2033 11.45L76.4783 18.95H68.7533L63.7533 12.9V18.95ZM90.2693 -4.92334e-05H91.3943C93.0443 -4.92334e-05 94.5443 0.116617 95.8943 0.349951C97.261 0.566618 98.4027 0.858284 99.3193 1.22495C100.253 1.57495 101.061 2.01662 101.744 2.54995C102.444 3.06662 102.994 3.59162 103.394 4.12495C103.794 4.65828 104.111 5.24162 104.344 5.87495C104.594 6.50828 104.753 7.08328 104.819 7.59995C104.903 8.11662 104.944 8.65828 104.944 9.22495V9.97495C104.944 10.5416 104.903 11.0833 104.819 11.6C104.753 12.1166 104.594 12.7 104.344 13.35C104.111 13.9833 103.794 14.575 103.394 15.125C103.011 15.6583 102.469 16.1916 101.769 16.725C101.069 17.2583 100.261 17.7083 99.3443 18.075C98.4277 18.4416 97.286 18.7333 95.9193 18.95C94.5693 19.1833 93.061 19.3 91.3943 19.3H90.2693C88.6027 19.3 87.086 19.1833 85.7193 18.95C84.3693 18.7333 83.2277 18.4416 82.2943 18.075C81.3777 17.7083 80.5693 17.2583 79.8693 16.725C79.1693 16.1916 78.6193 15.6583 78.2193 15.125C77.836 14.575 77.5193 13.9833 77.2693 13.35C77.036 12.7 76.8777 12.1166 76.7943 11.6C76.7277 11.0833 76.6943 10.5416 76.6943 9.97495V9.22495C76.6943 8.65828 76.7277 8.11662 76.7943 7.59995C76.8777 7.08328 77.036 6.50828 77.2693 5.87495C77.5193 5.24162 77.836 4.65828 78.2193 4.12495C78.6193 3.59162 79.1693 3.06662 79.8693 2.54995C80.5693 2.01662 81.3777 1.57495 82.2943 1.22495C83.2277 0.858284 84.3693 0.566618 85.7193 0.349951C87.086 0.116617 88.6027 -4.92334e-05 90.2693 -4.92334e-05ZM97.5943 9.74995V9.39995C97.5943 8.84995 97.4943 8.34162 97.2943 7.87495C97.0943 7.39162 96.7527 6.92495 96.2693 6.47495C95.8027 6.02495 95.1027 5.66662 94.1693 5.39995C93.236 5.13328 92.1193 4.99995 90.8193 4.99995C89.486 4.99995 88.3527 5.13328 87.4193 5.39995C86.486 5.66662 85.786 6.02495 85.3193 6.47495C84.8527 6.92495 84.5193 7.39162 84.3193 7.87495C84.136 8.34162 84.0443 8.84995 84.0443 9.39995V9.69995C84.0443 10.25 84.1443 10.775 84.3443 11.275C84.5443 11.7583 84.8777 12.2416 85.3443 12.725C85.811 13.1916 86.511 13.5666 87.4443 13.85C88.3943 14.1333 89.5193 14.275 90.8193 14.275C92.1193 14.275 93.236 14.1416 94.1693 13.875C95.1193 13.5916 95.8277 13.2166 96.2943 12.75C96.761 12.2833 97.0943 11.8083 97.2943 11.325C97.4943 10.825 97.5943 10.3 97.5943 9.74995ZM106.714 0.349951H126.889V4.89995H113.739V7.22495H126.614V11.8H113.739V18.95H106.714V0.349951ZM128.955 0.349951H149.13V4.89995H135.98V7.22495H148.855V11.8H135.98V18.95H128.955V0.349951Z" fill="white"/>
<path d="M153.769 14.075V18.95H146.719V14.075H153.769Z" fill="#589347"/>
</svg>
